HIERARCHY
ROOT pelvis
{
  OFFSET 0 100 0
  CHANNELS 6 Xposition Yposition Zposition Zrotation Xrotation Yrotation
  JOINT pelvis_right_femur
  {
    OFFSET -10.78128 -3.44521 -0.5502486
    CHANNELS 3 Zrotation Xrotation Yrotation
    JOINT right_femur_tibia
    {
      OFFSET -0.8047443 -44.0398 -0.1307829
      CHANNELS 3 Zrotation Xrotation Yrotation
      JOINT right_tibia_foot
      {
        OFFSET 3.006224 -47.83518 -5
        CHANNELS 3 Zrotation Xrotation Yrotation
        End Site
        {
          OFFSET 0 -5 15
        }
      }
    }
  }
  JOINT pelvis_left_femur
  {
    OFFSET 10.78128 -3.44521 -0.5502486
    CHANNELS 3 Zrotation Xrotation Yrotation
    JOINT left_femur_tibia
    {
      OFFSET 0.8047443 -44.0398 -0.1307829
      CHANNELS 3 Zrotation Xrotation Yrotation
      JOINT left_tibia_foot
      {
        OFFSET -4.370144 -48.10324 -4.275266
        CHANNELS 3 Zrotation Xrotation Yrotation
        End Site
        {
          OFFSET 0 -5 15
        }
      }
    }
  }
  JOINT pelvis_spine1
  {
    OFFSET 0 6.468898 -3.129235
    CHANNELS 3 Zrotation Xrotation Yrotation
    JOINT spine1
    {
      OFFSET 0 23.15396 4.99043
      CHANNELS 3 Zrotation Xrotation Yrotation
      JOINT spine2
      {
        OFFSET 0 20.79997 -5.064912
        CHANNELS 3 Zrotation Xrotation Yrotation
        JOINT neck
        {
          OFFSET 0 14.38658 9.616178
          CHANNELS 3 Zrotation Xrotation Yrotation
          End Site
          {
            OFFSET 0 20 0
          }
        }
      }
      JOINT right_manubrium
      {
        OFFSET -5.722621 16.35077 3.967754
        CHANNELS 3 Zrotation Xrotation Yrotation
        JOINT right_clavicle
        {
          OFFSET -13.16364 1.694482 -4.693211
          CHANNELS 3 Zrotation Xrotation Yrotation
          JOINT right_humerus
          {
            OFFSET -28.5034 -0.3100689 -2.792744
            CHANNELS 3 Zrotation Xrotation Yrotation
            JOINT right_radius
            {
              OFFSET -25.15693 0.02248979 -1.271978
              CHANNELS 3 Zrotation Xrotation Yrotation
              End Site
              {
                OFFSET -15 0 0
              }
            }
          }
        }
      }
      JOINT left_manubrium
      {
        OFFSET 5.722621 16.35077 3.967754
        CHANNELS 3 Zrotation Xrotation Yrotation
        JOINT left_clavicle
        {
          OFFSET 13.16364 1.694482 -4.693211
          CHANNELS 3 Zrotation Xrotation Yrotation
          JOINT left_humerus
          {
            OFFSET 29.39168 -1.063119 -2.237045
            CHANNELS 3 Zrotation Xrotation Yrotation
            JOINT left_radius
            {
              OFFSET 24.59957 -0.9528479 0.9047498
              CHANNELS 3 Zrotation Xrotation Yrotation
              End Site
              {
                OFFSET 15 -0 -0
              }
            }
          }
        }
      }
    }
  }
}
MOTION
Frames: 11
Frame Time: 0.0416666666667
1092.176 100.7867 2922.953 4.289358 -2.974974 39.56411 -0.04746561 -25.8212 0.1138122 -0 13.62674 -0 -0.08969784 -0.6216634 -8.373125 -5.277328 16.10572 -7.255507 -0 15.04892 -0 -4.967779 -20.733 11.55982 1.376653 -4.99588 6.622512 0.6718315 17.3057 -5.358629 2.051315 19.76098 1.726868 0.08919374 -18.73406 4.97266 1.032973 -29.3921 13.63638 85.815 12.77411 -8.823163 -0 0 27.87469 -26.13157 21.53058 18.03069 3.038295 -22.54717 -7.535269 -97.41274 13.06236 34.10348 0 0 -5.220433 5.850001 17.17834 5.584718
1096.294 99.56775 2928.32 3.937944 -2.444177 40.06357 0.4176304 -26.27551 0.3437314 -0 9.838806 -0 -0.03350098 -0.3663332 -8.51708 -5.130596 18.11842 -7.110383 -0 18.60299 -0 -6.556089 -20.18265 10.66781 1.377266 -4.989342 6.640255 0.6687658 17.29176 -5.351839 2.047426 19.74107 1.712007 0.06702654 -18.73354 4.967442 1.028636 -29.44835 13.62966 85.79652 12.79059 -8.753918 -0 0 27.96006 -26.12331 21.54006 18.06126 3.015681 -22.50842 -7.525913 -97.41759 13.05596 34.18171 0 0 -5.23156 5.784942 17.14047 5.663411
1100.511 98.70125 2934.047 3.638345 -2.44201 40.44014 1.472015 -25.44469 1.283356 -0 9.327091 -0 -0.1868979 -0.4060779 -8.707642 -4.664779 19.19131 -7.031078 -0 23.96283 -0 -7.890885 -18.32563 10.45928 1.371089 -4.979219 6.649033 0.6684103 17.2667 -5.34011 2.043771 19.7286 1.701173 0.04772529 -18.72747 4.964711 1.041819 -29.48935 13.62665 85.75617 12.81997 -8.667298 -0 0 28.03599 -26.10834 21.54153 18.09406 2.995524 -22.46241 -7.509402 -97.42519 13.05281 34.24658 0 0 -5.220896 5.728911 17.11699 5.726305
1104.764 98.37669 2940.035 3.505919 -3.068137 40.56263 3.011124 -23.26887 2.810949 -0 11.50109 -0 -0.5768061 -1.016766 -8.952634 -3.928439 18.94621 -7.036467 -0 31.14835 -0 -8.746664 -15.41286 11.16804 1.358628 -4.966306 6.647983 0.6707296 17.23271 -5.324442 2.040732 19.7249 1.695386 0.03312227 -18.71621 4.964726 1.07126 -29.51102 13.62762 85.69778 12.85986 -8.571202 -0 0 28.09496 -26.08784 21.53444 18.12589 2.979585 -22.41335 -7.487312 -97.4346 13.05341 34.29179 0 0 -5.18982 5.68693 17.11027 5.767803
1108.958 98.70025 2946.098 3.661612 -4.257667 40.32206 4.675381 -19.65949 4.580136 -0 15.29073 -0 -1.245391 -2.391993 -9.168036 -3.102683 16.96894 -7.13499 -0 39.7313 -0 -9.112566 -12.02173 12.73991 1.340837 -4.95172 6.636827 0.6756207 17.19265 -5.306171 2.038658 19.73069 1.695362 0.02480166 -18.70057 4.967577 1.114776 -29.51051 13.63263 85.6262 12.90679 -8.474378 -0 0 28.13069 -26.06352 21.51917 18.15358 2.969541 -22.3658 -7.461538 -97.44506 13.05789 34.31221 0 0 -5.14042 5.663406 17.12171 5.783194
1112.995 99.63429 2951.984 4.158789 -5.687679 39.71426 5.894734 -14.69875 6.014161 -0 19.04123 -0 -2.144923 -4.499053 -9.117731 -2.488403 12.93125 -7.244156 -0 48.54879 -0 -9.126179 -8.970148 14.71863 1.31909 -4.936887 6.616132 0.6829556 17.14985 -5.286861 2.037744 19.74562 1.701275 0.02369122 -18.68185 4.973108 1.169514 -29.48715 13.64143 85.5465 12.95639 -8.384982 -0 0 28.14 -26.03754 21.49746 18.17476 2.966712 -22.32388 -7.433977 -97.45625 13.06581 34.30534 0 0 -5.07507 5.661133 17.15109 5.769736
1116.822 100.9493 2957.459 4.897921 -6.742784 38.88113 6.159832 -8.881686 6.600765 -0 20.73967 -0 -2.861202 -6.921432 -8.496114 -2.351475 6.814623 -7.179423 -0 55.69697 -0 -8.973142 -7.062619 16.35307 1.295329 -4.923508 6.587762 0.6924516 17.10805 -5.268309 2.037962 19.76785 1.712472 0.02968131 -18.66196 4.980795 1.231482 -29.44369 13.65337 85.46424 13.00342 -8.30998 -0 0 28.12421 -26.01257 21.47265 18.18826 2.971669 -22.29088 -7.406567 -97.46829 13.07601 34.27276 0 0 -4.997249 5.680205 17.19571 5.728145
1120.467 102.268 2962.458 5.59959 -6.865034 38.02258 5.498652 -3.099656 6.387774 -0 19.22926 -0 -2.695029 -8.934296 -7.246176 -2.55251 -0.757889 -6.783453 -0 59.12344 -0 -8.838154 -6.595465 17.1671 1.271812 -4.913259 6.55474 0.7036291 17.07092 -5.252263 2.039055 19.7942 1.727511 0.04155559 -18.64314 4.989788 1.295911 -29.38609 13.66738 85.38486 13.04266 -8.25406 -0 0 28.08908 -25.99139 21.44912 18.19433 2.983993 -22.26872 -7.381071 -97.48154 13.08674 34.22021 0 0 -4.911562 5.717681 17.2505 5.663002
1123.997 103.1937 2967.118 5.984527 -6.30171 37.23815 4.657474 1.924127 5.916435 -0 15.60895 -0 -1.700502 -10.07647 -5.83909 -2.382242 -8.424028 -6.009105 -0 57.53451 -0 -8.702651 -6.993214 17.58763 1.250224 -4.907078 6.52005 0.715963 17.04058 -5.239728 2.040653 19.82156 1.74473 0.05749606 -18.62704 4.99925 1.359041 -29.3211 13.68239 85.31174 13.07107 -8.217871 -0 0 28.04228 -25.97569 21.43036 18.19446 3.002403 -22.25725 -7.358433 -97.49634 13.09648 34.15516 0 0 -4.822164 5.768732 17.3101 5.581006
1127.471 103.4414 2971.624 5.977089 -5.932455 36.51354 4.341714 6.232324 5.44714 -0 12.38353 -0 -1.092279 -10.90623 -4.772366 -1.291449 -14.83679 -4.963216 -0 50.81223 -0 -8.238185 -7.342409 18.39245 1.231193 -4.904601 6.485728 0.728805 17.01704 -5.230612 2.042483 19.84809 1.762796 0.0757539 -18.61404 5.008616 1.418562 -29.2538 13.69753 85.24625 13.0892 -8.198479 -0 0 27.98968 -25.96529 21.41701 18.19033 3.024901 -22.25452 -7.338848 -97.51219 13.10466 34.08397 0 0 -4.732986 5.828115 17.37048 5.489305
1130.974 102.9944 2976.073 5.511759 -5.839382 35.78951 4.384927 10.11698 4.919057 -0 10.99342 -0 -1.327538 -12.42291 -3.840059 0.2776177 -19.70786 -3.993286 -0 40.5921 -0 -7.481646 -7.318597 19.439 1.215212 -4.904424 6.453682 0.7407716 17.00002 -5.224473 2.044538 19.87314 1.78054 0.0948834 -18.60383 5.01739 1.470491 -29.18797 13.71162 85.19256 13.09978 -8.194008 -0 0 27.93301 -25.95886 21.40646 18.18228 3.048599 -22.25896 -7.323379 -97.52635 13.1118 34.01121 0 0 -4.652332 5.890352 17.42789 5.396447
